<?xml version="1.0" encoding="UTF-8"?>
<svg version="1.1" xmlns="http://www.w3.org/2000/svg" width="585" height="346">
<path d="M0 0 C193.05 0 386.1 0 585 0 C585 114.18 585 228.36 585 346 C391.95 346 198.9 346 0 346 C0 231.82 0 117.64 0 0 Z " fill="#FEFEFE" transform="translate(0,0)"/>
<path d="M0 0 C3.80839129 0.79710515 5.79076654 3.02785822 8.6875 5.5625 C13.18622569 7.97984805 17.40272461 7.83054714 22.375 7.75 C23.22167236 7.74355469 24.06834473 7.73710938 24.94067383 7.73046875 C30.26694389 7.66698402 35.56155696 7.41850322 40.875 7.0625 C48.9058182 6.54036675 56.93577151 6.41978472 64.98110962 6.38525391 C66.39094117 6.37851089 67.80076126 6.36835502 69.21054077 6.35449219 C82.88256368 6.23050695 96.95604661 6.74303594 107.70703125 16.37109375 C109.73176951 18.66185601 111.33547307 20.78953875 112.60546875 23.578125 C113.88241722 25.91996551 115.28013118 27.04946898 117.375 28.6875 C128.97146683 38.58231137 134.21291985 52.85650972 136.6875 67.5625 C137.0064666 72.34471595 136.97713405 77.08517475 136.875 81.875 C136.86146484 83.10412109 136.84792969 84.33324219 136.83398438 85.59960938 C136.79910365 88.58772513 136.75009698 91.57485873 136.6875 94.5625 C133.7175 95.5525 133.7175 95.5525 130.6875 96.5625 C131.6775 98.0475 131.6775 98.0475 132.6875 99.5625 C132.50084503 103.04672612 132.35954701 105.61552467 130.3125 108.5 C128.6875 109.5625 128.6875 109.5625 125.6875 109.5625 C125.56503906 110.40039062 125.44257813 111.23828125 125.31640625 112.1015625 C124.64365288 115.80379532 123.6810047 119.32664522 122.625 122.9375 C122.26277344 124.18273437 121.90054688 125.42796875 121.52734375 126.7109375 C121.25019531 127.65195313 120.97304688 128.59296875 120.6875 129.5625 C121.3475 129.5625 122.0075 129.5625 122.6875 129.5625 C124.10791821 132.40333641 124.00202272 134.41727278 123.6875 137.5625 C121.9375 139.9375 121.9375 139.9375 119.6875 141.5625 C118.3675 141.5625 117.0475 141.5625 115.6875 141.5625 C113.71180277 148.52899552 113.71180277 148.52899552 114.6875 155.5625 C115.0175 155.8925 115.3475 156.2225 115.6875 156.5625 C116.19461844 160.95752645 116.18345656 162.89650119 113.5 166.5 C110.39054604 168.78026624 109.41699609 169.12192441 105.6875 168.5625 C104.93235107 168.33312744 104.17720215 168.10375488 103.39916992 167.86743164 C99.74516577 167.456533 98.0094517 168.55903908 94.80078125 170.30859375 C93.1465918 171.19321289 93.1465918 171.19321289 91.45898438 172.09570312 C90.31751953 172.72412109 89.17605469 173.35253906 88 174 C85.72703078 175.23113872 83.4523763 176.45917283 81.17578125 177.68359375 C79.66818237 178.51008423 79.66818237 178.51008423 78.13012695 179.35327148 C75.6875 180.5625 75.6875 180.5625 73.6875 180.5625 C73.81125 181.284375 73.935 182.00625 74.0625 182.75 C73.6875 185.5625 73.6875 185.5625 71 188.375 C67.6875 190.5625 67.6875 190.5625 65.0625 191.1875 C61.61051583 190.27908311 60.56917646 188.51942016 58.6875 185.5625 C58.60371094 184.91772705 58.51992188 184.2729541 58.43359375 183.60864258 C56.80801374 179.15053195 50.64391982 177.31727435 46.57080078 175.22436523 C44.70799248 174.26060222 42.86842125 173.26037536 41.02734375 172.25585938 C34.02494766 168.55019214 29.52570495 166.94190901 21.6875 168.5625 C18.625 166.5 18.625 166.5 16.6875 163.5625 C16.25 160.375 16.25 160.375 16.6875 157.5625 C17.6775 156.5725 17.6775 156.5725 18.6875 155.5625 C18.33765413 151.01450369 17.57887321 146.72352106 15.6875 142.5625 C13.24253957 140.84538757 13.24253957 140.84538757 10.6875 139.5625 C8.12062633 135.7121895 8.85461276 133.97680237 9.6875 129.5625 C10.3475 129.5625 11.0075 129.5625 11.6875 129.5625 C10.87534945 126.95822388 10.06279393 124.35407532 9.25 121.75 C9.01990234 121.01201172 8.78980469 120.27402344 8.55273438 119.51367188 C7.6187816 116.52231589 6.67850896 113.53552688 5.6875 110.5625 C4.02677151 109.88117549 2.359733 109.21507873 0.6875 108.5625 C-1.76147847 104.88903229 -1.62787716 102.89893601 -1.3125 98.5625 C-0.3225 97.5725 -0.3225 97.5725 0.6875 96.5625 C-0.3025 95.9025 -1.2925 95.2425 -2.3125 94.5625 C-2.66894531 91.70507812 -2.66894531 91.70507812 -2.640625 88.09375 C-2.63546875 86.80082031 -2.6303125 85.50789063 -2.625 84.17578125 C-2.6146875 83.50111816 -2.604375 82.82645508 -2.59375 82.13134766 C-2.56262014 80.07045359 -2.55278216 78.01032452 -2.546875 75.94921875 C-2.4664862 65.87047239 -2.4664862 65.87047239 -1.3125 63.5625 C-0.64281514 57.31210795 -1.85845976 53.74292532 -5.0234375 48.34765625 C-8.21401019 41.45408556 -8.67374614 34.25254048 -8.625 26.75 C-8.62153564 25.87923828 -8.61807129 25.00847656 -8.61450195 24.11132812 C-8.24319283 2.00510096 -8.24319283 2.00510096 0 0 Z " fill="#6FEAFA" transform="translate(229.3125,58.4375)"/>
<path d="M0 0 C4.05887554 0.58619957 7.90675371 1.83948854 11.8125 3.0625 C12.97394531 3.42472656 14.13539063 3.78695313 15.33203125 4.16015625 C16.65267578 4.57587891 16.65267578 4.57587891 18 5 C18 5.33 18 5.66 18 6 C17.10796875 6.03738281 16.2159375 6.07476562 15.296875 6.11328125 C14.12640625 6.17902344 12.9559375 6.24476563 11.75 6.3125 C10.58984375 6.37050781 9.4296875 6.42851562 8.234375 6.48828125 C4.84648967 7.02428726 3.33607187 7.51614743 1 10 C0.40914 11.93744199 0.40914 11.93744199 0.5625 14 C0.56378906 14.680625 0.56507813 15.36125 0.56640625 16.0625 C1.15688357 18.70102927 1.79059169 19.40636912 4 21 C6.64916014 21.33088812 9.07693956 21.48843494 11.73046875 21.51171875 C12.48088943 21.52966995 13.23131012 21.54762115 14.00447083 21.56611633 C16.3987569 21.62025187 18.79284331 21.65412416 21.1875 21.6875 C22.81187677 21.72067036 24.43622717 21.75515976 26.06054688 21.79101562 C30.04022056 21.8759797 34.0198347 21.94277465 38 22 C38.02505615 22.57032959 38.0501123 23.14065918 38.07592773 23.72827148 C38.19156549 26.29826157 38.31443624 28.86785527 38.4375 31.4375 C38.47681641 32.33533203 38.51613281 33.23316406 38.55664062 34.15820312 C38.61948242 35.43920898 38.61948242 35.43920898 38.68359375 36.74609375 C38.72025146 37.53685303 38.75690918 38.3276123 38.79467773 39.14233398 C38.80563257 41.01401441 38.80563257 41.01401441 40 42 C43 42.16666667 43 42.16666667 46 42 C47.54950268 40.45049732 47.21655193 38.90009406 47.31640625 36.74609375 C47.35830078 35.89208984 47.40019531 35.03808594 47.44335938 34.15820312 C47.48267578 33.26037109 47.52199219 32.36253906 47.5625 31.4375 C47.62727539 30.08495117 47.62727539 30.08495117 47.69335938 28.70507812 C47.79978142 26.47021515 47.90179988 24.23523692 48 22 C49.98 22 51.96 22 54 22 C54.33 33.88 54.66 45.76 55 58 C52.69 58 50.38 58 48 58 C48.02320313 59.05960937 48.04640625 60.11921875 48.0703125 61.2109375 C48.08906944 62.5989513 48.10726972 63.9869727 48.125 65.375 C48.14175781 66.07367188 48.15851563 66.77234375 48.17578125 67.4921875 C48.19344267 69.32897486 48.10303261 71.16601963 48 73 C46 75 46 75 43 75.25 C40 75 40 75 38 73 C38 68.05 38 63.1 38 58 C-35.92 58 -109.84 58 -186 58 C-186 44.14115175 -185.15453261 32.15453261 -175 22 C-173.42023298 21.8929112 -171.83579219 21.85378002 -170.25244141 21.84228516 C-169.24114166 21.83202301 -168.22984192 21.82176086 -167.18789673 21.81118774 C-166.08690643 21.80388641 -164.98591614 21.79658508 -163.8515625 21.7890625 C-161.54426371 21.76099609 -159.23697214 21.73233164 -156.9296875 21.703125 C-153.27343936 21.66181146 -149.61732615 21.62494478 -145.9609375 21.59863281 C-142.44502574 21.57110543 -138.92973647 21.52523269 -135.4140625 21.4765625 C-134.31712067 21.47330963 -133.22017883 21.47005676 -132.08999634 21.46670532 C-131.07239227 21.45013885 -130.05478821 21.43357239 -129.00634766 21.41650391 C-127.66185043 21.40437363 -127.66185043 21.40437363 -126.29019165 21.39199829 C-123.52238768 20.91824998 -122.61915466 20.2714194 -121 18 C-120.61008312 13.63293092 -120.53675931 11.69486103 -123 8 C-126.31544299 6.89485234 -129.20410111 6.67892369 -132.6875 6.4375 C-133.86699219 6.35371094 -135.04648438 6.26992188 -136.26171875 6.18359375 C-137.61716797 6.09271484 -137.61716797 6.09271484 -139 6 C-136.37586486 4.65278776 -133.75134574 3.43899699 -131 2.375 C-130.34 2.11460937 -129.68 1.85421875 -129 1.5859375 C-127 1 -127 1 -123 1 C-122.52691406 1.89460938 -122.05382812 2.78921875 -121.56640625 3.7109375 C-112.11559629 21.16865002 -98.34915844 34.22468085 -79 40 C-61.13206852 43.80967908 -43.37996745 40.99052543 -27.5 32.1875 C-15.5823236 24.28333661 -6.98584121 13.92941702 -1 1 C-0.67 0.67 -0.34 0.34 0 0 Z " fill="#FD8456" transform="translate(357,268)"/>
<path d="M0 0 C3.80839129 0.79710515 5.79076654 3.02785822 8.6875 5.5625 C13.18622569 7.97984805 17.40272461 7.83054714 22.375 7.75 C23.22167236 7.74355469 24.06834473 7.73710938 24.94067383 7.73046875 C30.26694389 7.66698402 35.56155696 7.41850322 40.875 7.0625 C48.9058182 6.54036675 56.93577151 6.41978472 64.98110962 6.38525391 C66.39094117 6.37851089 67.80076126 6.36835502 69.21054077 6.35449219 C82.88256368 6.23050695 96.95604661 6.74303594 107.70703125 16.37109375 C109.73176951 18.66185601 111.33547307 20.78953875 112.60546875 23.578125 C113.88241722 25.91996551 115.28013118 27.04946898 117.375 28.6875 C128.97146683 38.58231137 134.21291985 52.85650972 136.6875 67.5625 C137.0064666 72.34471595 136.97713405 77.08517475 136.875 81.875 C136.86146484 83.10412109 136.84792969 84.33324219 136.83398438 85.59960938 C136.79910365 88.58772513 136.75009698 91.57485873 136.6875 94.5625 C134.0475 95.2225 131.4075 95.8825 128.6875 96.5625 C121.01779305 80.44443565 121.01779305 80.44443565 121.6875 72.5625 C122.6775 71.0775 122.6775 71.0775 123.6875 69.5625 C124.00912076 66.4749407 124.17474515 64.42234439 122.625 61.6875 C119.61267484 59.93840797 117.09247373 60.25848449 113.6875 60.5625 C112.6975 61.2225 111.7075 61.8825 110.6875 62.5625 C109.83478516 61.9128125 109.83478516 61.9128125 108.96484375 61.25 C105.35905195 58.64949573 102.6097751 56.72719198 98.1875 55.9375 C95.07313408 56.49363677 93.26579732 57.1820841 90.5 58.5625 C85.05811566 61.17123837 79.62270984 61.64406685 73.6875 60.5625 C71.375 58.0625 71.375 58.0625 69.6875 55.5625 C64.95063411 54.8942655 64.95063411 54.8942655 60.8125 56.9375 C59.62268188 58.57428511 59.62268188 58.57428511 58.6875 60.5625 C51.72403409 61.10628476 46.63161942 60.01728683 40.16015625 57.46875 C37.09214277 56.3442964 34.9151833 55.96200078 31.6875 56.5625 C28.54001385 58.38303354 28.54001385 58.38303354 25.6875 60.5625 C24.3683418 61.25679379 23.04100594 61.93780495 21.6875 62.5625 C20.6975 61.9025 19.7075 61.2425 18.6875 60.5625 C14.02242572 60.09844623 14.02242572 60.09844623 9.75 61.6875 C8.20025485 64.42234439 8.36587924 66.4749407 8.6875 69.5625 C9.3475 70.5525 10.0075 71.5425 10.6875 72.5625 C10.55078125 74.62109375 10.55078125 74.62109375 10 77 C9.80148438 77.87398438 9.60296875 78.74796875 9.3984375 79.6484375 C9.16382813 80.61007813 8.92921875 81.57171875 8.6875 82.5625 C8.43226563 83.64789063 8.17703125 84.73328125 7.9140625 85.8515625 C5.85455975 94.39544025 5.85455975 94.39544025 4.6875 95.5625 C2.34805264 95.27519945 0.0135857 94.94313221 -2.3125 94.5625 C-2.33719575 90.46908501 -2.35535793 86.37569879 -2.36743164 82.28222656 C-2.3724643 80.88931523 -2.37929098 79.4964092 -2.38793945 78.10351562 C-2.40005152 76.10288754 -2.40520412 74.10222112 -2.41015625 72.1015625 C-2.41539307 70.89709473 -2.42062988 69.69262695 -2.42602539 68.45166016 C-2.3125 65.5625 -2.3125 65.5625 -1.3125 63.5625 C-0.64281514 57.31210795 -1.85845976 53.74292532 -5.0234375 48.34765625 C-8.21401019 41.45408556 -8.67374614 34.25254048 -8.625 26.75 C-8.62153564 25.87923828 -8.61807129 25.00847656 -8.61450195 24.11132812 C-8.24319283 2.00510096 -8.24319283 2.00510096 0 0 Z " fill="#35359A" transform="translate(229.3125,58.4375)"/>
<path d="M0 0 C-0.66 0.66 -1.32 1.32 -2 2 C-2.48437316 5.6869345 -2.37041346 9.40990446 -2.375 13.125 C-2.41173828 14.65640625 -2.41173828 14.65640625 -2.44921875 16.21875 C-2.47330958 22.46630423 -2.17826432 28.05314042 2 33 C5.22962364 34.96763692 5.22962364 34.96763692 9 36 C10.32231405 36.46023483 11.64392095 36.92250597 12.96484375 37.38671875 C14.2880353 37.82343714 15.61226386 38.25702584 16.9375 38.6875 C17.62134766 38.91244141 18.30519531 39.13738281 19.00976562 39.36914062 C20.67226111 39.91555523 22.33600048 40.45818291 24 41 C14.23487169 61.48158716 0.66332607 74.37907241 -20.875 82.375 C-31.94337822 85.59879948 -46.06657014 85.74783416 -57 82 C-57.90363281 81.71640625 -58.80726563 81.4328125 -59.73828125 81.140625 C-76.95415171 75.18429956 -90.23546575 63.72685473 -98.4375 47.4375 C-99.30184156 45.62983006 -100.15975357 43.81899502 -101 42 C-100.03960815 41.72119995 -100.03960815 41.72119995 -99.05981445 41.43676758 C-96.13887257 40.57860041 -93.22591924 39.6958531 -90.3125 38.8125 C-89.30509766 38.52052734 -88.29769531 38.22855469 -87.25976562 37.92773438 C-81.54683965 36.17426205 -77.7093137 34.77134878 -74 30 C-72.59087904 27.18175808 -72.88816447 24.82748718 -72.90234375 21.6796875 C-72.90556641 20.42285156 -72.90878906 19.16601562 -72.91210938 17.87109375 C-72.92048828 16.55238281 -72.92886719 15.23367187 -72.9375 13.875 C-72.94251511 12.53515789 -72.94707799 11.195314 -72.95117188 9.85546875 C-72.96298914 6.57026794 -72.97946383 3.28515603 -73 0 C-68.3485156 2.29947911 -63.70883609 4.62041249 -59.078125 6.96142578 C-57.26069859 7.86971196 -55.42833447 8.74798302 -53.59375 9.62109375 C-45.71139057 13.53048976 -45.71139057 13.53048976 -43.875 17.8125 C-43.58625 18.864375 -43.2975 19.91625 -43 21 C-42.67 21.33 -42.34 21.66 -42 22 C-37.307991 21.69238304 -37.307991 21.69238304 -33.125 19.75 C-31.80777412 18.01414658 -31.80777412 18.01414658 -31.85546875 15.63671875 C-30.78207386 12.32830985 -29.20422893 11.56909463 -26.18676758 10.01928711 C-25.19713013 9.54567749 -25.19713013 9.54567749 -24.1875 9.0625 C-23.51549561 8.72549072 -22.84349121 8.38848145 -22.15112305 8.04125977 C-20.77311361 7.35168488 -19.39164423 6.66898173 -18.00683594 5.99316406 C-16.14460733 5.07156479 -14.30912489 4.09645033 -12.4765625 3.1171875 C-11.43242187 2.56289062 -10.38828125 2.00859375 -9.3125 1.4375 C-7.91451172 0.69306641 -7.91451172 0.69306641 -6.48828125 -0.06640625 C-3.77138108 -1.08577696 -2.6603974 -1.04048329 0 0 Z " fill="#FEE3D0" transform="translate(334,226)"/>
<path d="M0 0 C3.14281234 2.52713555 4.80564253 4.02026176 5.60127258 8.03096008 C5.59016953 9.15681015 5.57906647 10.28266022 5.56762695 11.44262695 C5.5672493 12.72357742 5.56687164 14.00452789 5.56648254 15.32429504 C5.54095309 16.71230044 5.51487318 18.1002958 5.48828125 19.48828125 C5.47894881 20.91601827 5.47183473 22.34377136 5.46684265 23.77153015 C5.44780601 27.51857168 5.39873633 31.26463493 5.34332275 35.0112915 C5.29205685 38.83877327 5.2693131 42.66641405 5.24414062 46.49414062 C5.19061232 53.99653841 5.10534252 61.49813182 5 69 C5.94875 68.938125 6.8975 68.87625 7.875 68.8125 C8.90625 68.874375 9.9375 68.93625 11 69 C13 72 13 72 12.625 75.1875 C12.315625 76.5796875 12.315625 76.5796875 12 78 C8.535 78.495 8.535 78.495 5 79 C2 75.25 2 75.25 2 73 C0.35 73.33 -1.3 73.66 -3 74 C-2.98952637 75.04978027 -2.97905273 76.09956055 -2.96826172 77.18115234 C-2.93211547 81.06865033 -2.90911922 84.95613341 -2.89013672 88.84375 C-2.88006683 90.52769466 -2.86641012 92.21162179 -2.84912109 93.89550781 C-2.82491574 96.31319501 -2.81352704 98.73065143 -2.8046875 101.1484375 C-2.79436493 101.9036972 -2.78404236 102.65895691 -2.77340698 103.43710327 C-2.77300682 105.2929398 -2.87777284 107.1481928 -3 109 C-3.66 109.66 -4.32 110.32 -5 111 C-11.57692308 110.42307692 -11.57692308 110.42307692 -13 109 C-13.08851529 106.40640678 -13.11525945 103.83960309 -13.09765625 101.24609375 C-13.0962413 100.47064713 -13.09482635 99.6952005 -13.09336853 98.89625549 C-13.08775345 96.40996506 -13.07519846 93.9237634 -13.0625 91.4375 C-13.05748694 89.75586067 -13.0529237 88.07421994 -13.04882812 86.39257812 C-13.03777913 82.26168434 -13.02050445 78.13085724 -13 74 C-14.98 74 -16.96 74 -19 74 C-18.98428955 74.84763916 -18.98428955 74.84763916 -18.96826172 75.71240234 C-18.92675212 78.26655653 -18.9006904 80.82063982 -18.875 83.375 C-18.85824219 84.26445312 -18.84148437 85.15390625 -18.82421875 86.0703125 C-18.81455078 87.34648437 -18.81455078 87.34648437 -18.8046875 88.6484375 C-18.78897705 89.82672119 -18.78897705 89.82672119 -18.77294922 91.02880859 C-19 93 -19 93 -21 95 C-24 95.25 -24 95.25 -27 95 C-29 93 -29 93 -29.22705078 91.02880859 C-29.21657715 90.24328613 -29.20610352 89.45776367 -29.1953125 88.6484375 C-29.18886719 87.79765625 -29.18242187 86.946875 -29.17578125 86.0703125 C-29.15902344 85.18085938 -29.14226562 84.29140625 -29.125 83.375 C-29.11597656 82.4778125 -29.10695313 81.580625 -29.09765625 80.65625 C-29.0740497 78.43723414 -29.0411231 76.21874923 -29 74 C-30.51352051 74.0314209 -30.51352051 74.0314209 -32.05761719 74.06347656 C-35.80714687 74.13596785 -39.55661482 74.1818322 -43.30664062 74.21972656 C-44.92849143 74.23982144 -46.55026997 74.26710254 -48.171875 74.30175781 C-50.5053898 74.3503727 -52.83794557 74.37298889 -55.171875 74.390625 C-56.25647003 74.42159271 -56.25647003 74.42159271 -57.36297607 74.45318604 C-60.84886209 74.4547339 -62.65899936 74.26395234 -65.45385742 72.10058594 C-67.11794774 69.83975645 -67.56791992 68.77499668 -67.5625 66 C-67.58441406 65.34 -67.60632813 64.68 -67.62890625 64 C-66.57746325 60.65628064 -65.01140124 59.79392815 -62 58 C-58.1163289 57.43971763 -54.2721348 57.53517481 -50.35546875 57.609375 C-49.2305452 57.61503479 -48.10562164 57.62069458 -46.9466095 57.62652588 C-43.35980366 57.64888532 -39.77400304 57.69908333 -36.1875 57.75 C-33.75326965 57.77006545 -31.31902362 57.78831614 -28.88476562 57.8046875 C-22.92283511 57.84874877 -16.96148938 57.91565757 -11 58 C-11.01665459 56.9985495 -11.01665459 56.9985495 -11.03364563 55.97686768 C-11.14418013 49.03419357 -11.21964322 42.09176897 -11.2746582 35.1484375 C-11.29981755 32.55653737 -11.33394851 29.96470828 -11.37719727 27.37304688 C-11.43778231 23.64956139 -11.46619646 19.92701305 -11.48828125 16.203125 C-11.51408768 15.04258606 -11.5398941 13.88204712 -11.56648254 12.68634033 C-11.56928613 4.66271383 -11.56928613 4.66271383 -8.65698242 1.27246094 C-5.36850126 -0.30243236 -3.59961105 -0.67492707 0 0 Z " fill="#6AEBFB" transform="translate(424,216)"/>
<path d="M0 0 C2.65698242 1.7800293 2.65698242 1.7800293 5 5 C5.70097384 9.03002202 5.5811621 13.00239623 5.48828125 17.08203125 C5.48120651 18.25134689 5.47413177 19.42066254 5.46684265 20.62541199 C5.43888494 24.3550958 5.37613872 28.08327097 5.3125 31.8125 C5.28741915 34.34307726 5.26460561 36.87367808 5.24414062 39.40429688 C5.18905346 45.60337813 5.10541122 51.80158128 5 58 C5.61530075 57.99333817 6.2306015 57.98667633 6.86454773 57.97981262 C13.27219413 57.91341004 19.67974267 57.86817885 26.08764648 57.83520508 C28.4786374 57.82012457 30.86960068 57.79965723 33.26049805 57.77368164 C36.69847435 57.73726694 40.13608469 57.72026601 43.57421875 57.70703125 C44.64210129 57.69154739 45.70998383 57.67606354 46.81022644 57.66011047 C56.1552462 57.65799435 56.1552462 57.65799435 60 61 C61.54586876 64.09173752 61.29359521 66.59429552 61 70 C58.86759906 72.87416819 57.67202387 73.88163345 54.11621094 74.50793457 C52.44220215 74.51270813 52.44220215 74.51270813 50.734375 74.51757812 C48.83220215 74.53649109 48.83220215 74.53649109 46.89160156 74.55578613 C45.51106205 74.5486263 44.13052761 74.54042231 42.75 74.53125 C41.33040094 74.53394562 39.91080369 74.53782863 38.49121094 74.54284668 C35.51870106 74.54873858 32.54667259 74.54018954 29.57421875 74.52148438 C25.76741213 74.498694 21.96173351 74.51181888 18.15496826 74.53577423 C15.22436044 74.55024114 12.29401926 74.54562235 9.36340332 74.53526306 C7.96000026 74.53259819 6.55657285 74.53585717 5.15319824 74.54518127 C3.19067865 74.55535941 1.22807398 74.5370904 -0.734375 74.51757812 C-1.85038086 74.51439575 -2.96638672 74.51121338 -4.11621094 74.50793457 C-7 74 -7 74 -9.35826111 72.37072754 C-11.5065501 69.2685242 -11.51320454 67.31135691 -11.53344727 63.55078125 C-11.5492836 62.24262451 -11.56511993 60.93446777 -11.58143616 59.58666992 C-11.57759485 58.16194298 -11.5725559 56.73721884 -11.56640625 55.3125 C-11.57164222 53.84805913 -11.5779186 52.38362164 -11.58518982 50.91918945 C-11.5955913 47.85254019 -11.59103633 44.78635503 -11.57641602 41.71972656 C-11.55922085 37.79169979 -11.58273126 33.86513479 -11.61790562 29.93727112 C-11.63987564 26.91400479 -11.63843946 23.89108855 -11.6301403 20.86776733 C-11.62932068 19.41969193 -11.63618642 17.97159085 -11.65091133 16.52359009 C-11.66834612 14.49886394 -11.65050172 12.47392704 -11.63110352 10.44921875 C-11.63014175 9.29768311 -11.62917999 8.14614746 -11.62818909 6.9597168 C-11 4 -11 4 -8.64805603 1.63208008 C-5.36923771 -0.38875861 -3.78559003 -0.70979813 0 0 Z " fill="#6AEBFB" transform="translate(176,216)"/>
<path d="M0 0 C1.22477051 -0.01583633 2.44954102 -0.03167267 3.71142578 -0.04798889 C5.0261084 -0.04302902 6.34079102 -0.03806915 7.6953125 -0.03295898 C9.06624778 -0.03819772 10.43717944 -0.04447511 11.80810547 -0.05174255 C14.67627976 -0.06213229 17.54395747 -0.05760608 20.41210938 -0.04296875 C24.08109542 -0.02577356 27.74851642 -0.0492894 31.41732788 -0.08445835 C34.24676822 -0.10645603 37.07583529 -0.1049856 39.90533447 -0.09669304 C41.91333098 -0.09547833 43.92130445 -0.11538631 45.92919922 -0.13563538 C50.88295533 -0.08494345 54.67812553 -0.03651351 59.14379883 2.19189453 C61.93503771 7.75526814 61.55777533 13.51146706 61.51953125 19.62719727 C61.52544402 21.0205547 61.53269236 22.41390705 61.54121399 23.80725098 C61.55307643 26.72260069 61.54641722 29.63718609 61.52709961 32.55249023 C61.50420507 36.28226442 61.53100206 40.00976157 61.57216167 43.73931122 C61.59777861 46.61512636 61.59514993 49.49039928 61.58426857 52.36628723 C61.58278521 53.74097258 61.59043369 55.11570018 61.60751915 56.49028015 C61.71821077 67.12000129 61.71821077 67.12000129 59.56314087 70.51245117 C56.73855838 73.04367316 54.91576289 73.53182946 51.1328125 73.59594727 C47.43188664 72.40885784 46.72120205 71.80268332 44.8203125 68.53344727 C44.45954895 66.07830811 44.45954895 66.07830811 44.47973633 63.3059082 C44.48007622 61.74474274 44.48007622 61.74474274 44.48042297 60.15203857 C44.49590683 59.03524719 44.51139069 57.91845581 44.52734375 56.76782227 C44.53158859 55.61928772 44.53583344 54.47075317 44.54020691 53.28741455 C44.55699917 49.61918697 44.59465352 45.9515088 44.6328125 42.28344727 C44.64785858 39.79647603 44.66154711 37.30949619 44.67382812 34.82250977 C44.70690454 28.72596815 44.75710994 22.62974696 44.8203125 16.53344727 C44.16520691 16.54677094 43.51010132 16.5600946 42.83514404 16.57382202 C36.02229428 16.70647085 29.20981064 16.7970203 22.39599609 16.86303711 C19.85255029 16.89322734 17.30920872 16.93418408 14.76611328 16.98608398 C11.11204331 17.0587947 7.45934834 17.09288258 3.8046875 17.11938477 C2.66602234 17.15035248 1.52735718 17.18132019 0.35418701 17.21322632 C-2.61064748 17.21449293 -5.28234871 17.16231962 -8.1796875 16.53344727 C-11.2594744 13.34574183 -12.15394739 11.82045253 -12.2421875 7.40844727 C-10.06423647 1.515168 -5.95145733 0.03430917 0 0 Z " fill="#6AEBFC" transform="translate(368.1796875,25.466552734375)"/>
<path d="M0 0 C2.89366996 3.15953971 2.4230918 6.67099925 2.38330078 10.7409668 C2.38712769 11.59525269 2.39095459 12.44953857 2.39489746 13.32971191 C2.39761853 15.1352659 2.39024363 16.94085917 2.37353516 18.74633789 C2.35212701 21.51236736 2.37332882 24.27579951 2.39892578 27.04174805 C2.39628254 28.79566004 2.39115763 30.54957041 2.38330078 32.3034668 C2.39139771 33.13164917 2.39949463 33.95983154 2.40783691 34.81311035 C2.31504032 40.48674769 2.31504032 40.48674769 0.07885742 43.07299805 C-7.48562969 46.29750478 -19.42806892 41.66125186 -27.26391602 40.01098633 C-29.60371176 39.51837185 -31.9449889 39.0333628 -34.28662109 38.54956055 C-35.78085228 38.23879774 -37.27499624 37.92761518 -38.76904297 37.6159668 C-39.46589706 37.47114868 -40.16275116 37.32633057 -40.88072205 37.17712402 C-48.79401531 35.5065474 -48.79401531 35.5065474 -50.33544922 33.3972168 C-52.31129419 27.62166997 -50.89805672 21.60042344 -49.52294922 15.8347168 C-49.38244141 15.13668945 -49.24193359 14.43866211 -49.09716797 13.71948242 C-48.16252541 9.79024512 -47.37656567 8.19618978 -44.12451172 5.72143555 C-43.14224609 5.16069336 -42.15998047 4.59995117 -41.14794922 4.0222168 C-40.48794922 3.0322168 -39.82794922 2.0422168 -39.14794922 1.0222168 C-37.1394043 0.49804688 -37.1394043 0.49804688 -34.66748047 0.29174805 C-33.75724121 0.21077881 -32.84700195 0.12980957 -31.90917969 0.04638672 C-30.93609863 -0.02346436 -29.96301758 -0.09331543 -28.96044922 -0.1652832 C-27.47762451 -0.28262817 -27.47762451 -0.28262817 -25.96484375 -0.40234375 C-4.40800272 -2.00659819 -4.40800272 -2.00659819 0 0 Z " fill="#FCEEE4" transform="translate(291.14794921875,124.977783203125)"/>
<path d="M0 0 C1.22477051 -0.01260864 2.44954102 -0.02521729 3.71142578 -0.03820801 C5.0261084 -0.03011108 6.34079102 -0.02201416 7.6953125 -0.01367188 C9.06624629 -0.01636879 10.4371782 -0.02025287 11.80810547 -0.02526855 C14.67629269 -0.03115441 17.54398039 -0.02263109 20.41210938 -0.00390625 C24.08092002 0.01888392 27.74856014 0.00575577 31.41732788 -0.01819611 C34.24675245 -0.03267948 37.07590141 -0.02803672 39.90533447 -0.01768494 C41.91329716 -0.01373486 43.92127073 -0.02584149 45.92919922 -0.03820801 C47.76635498 -0.01929504 47.76635498 -0.01929504 49.640625 0 C51.25348389 0.00477356 51.25348389 0.00477356 52.89892578 0.00964355 C56.52006021 0.6392416 58.20954454 1.98007981 60.8203125 4.51757812 C61.44921875 6.51757812 61.44921875 6.51757812 61.3828125 8.51757812 C61.38410156 9.17757812 61.38539063 9.83757813 61.38671875 10.51757812 C60.56824404 13.40764055 59.11301242 14.61305115 56.8203125 16.51757812 C54.36517334 16.99859619 54.36517334 16.99859619 51.59277344 16.97167969 C50.55199646 16.97137756 49.51121948 16.97107544 48.43890381 16.97076416 C46.76371674 16.93979645 46.76371674 16.93979645 45.0546875 16.90820312 C43.90615295 16.90254333 42.75761841 16.89688354 41.57427979 16.89105225 C37.90586676 16.86866144 34.23843033 16.81845754 30.5703125 16.76757812 C28.08334744 16.74751674 25.59636707 16.72926534 23.109375 16.71289062 C17.01268761 16.66878768 10.91656983 16.60184761 4.8203125 16.51757812 C4.83141556 17.10782272 4.84251862 17.69806732 4.85395813 18.30619812 C4.9646491 24.45422216 5.04001995 30.60196279 5.0949707 36.75073242 C5.12010178 39.04479471 5.15421219 41.33877703 5.19750977 43.63256836 C5.25822082 46.93167862 5.28653687 50.22972959 5.30859375 53.52929688 C5.33440018 54.55343185 5.3602066 55.57756683 5.38679504 56.63273621 C5.3895942 63.75278194 5.3895942 63.75278194 2.47729492 67.6652832 C-0.1796875 69.51757812 -0.1796875 69.51757812 -3.1796875 70.14257812 C-6.2459672 69.50376985 -7.97207551 68.72652731 -10.12762451 66.43875122 C-12.6279152 61.87296833 -11.88393898 56.10399449 -11.84375 51.04492188 C-11.84853363 49.72972061 -11.85331726 48.41451935 -11.85824585 47.0594635 C-11.86560155 44.28112295 -11.85495427 41.50358836 -11.83154297 38.7253418 C-11.80302542 35.1682865 -11.81948225 31.61311504 -11.84940529 28.0561285 C-11.87183719 24.65640927 -11.8561246 21.25719461 -11.84375 17.85742188 C-11.85387115 16.58132553 -11.86399231 15.30522919 -11.87442017 13.99046326 C-11.85865936 12.80565872 -11.84289856 11.62085419 -11.82666016 10.40014648 C-11.82268219 9.3582164 -11.81870422 8.31628632 -11.81460571 7.24278259 C-11.1796875 4.51757812 -11.1796875 4.51757812 -9.02548218 2.18226624 C-5.71856563 0.24783832 -3.81005454 0.01127657 0 0 Z " fill="#6AECFC" transform="translate(176.1796875,25.482421875)"/>
<path d="M0 0 C1.27254639 0.13897705 1.27254639 0.13897705 2.57080078 0.28076172 C3.47169434 0.40209473 4.37258789 0.52342773 5.30078125 0.6484375 C6.69079346 0.81303467 6.69079346 0.81303467 8.10888672 0.98095703 C10.0151347 1.20777476 11.92043684 1.44268343 13.82470703 1.68554688 C16.43871004 2.00228476 19.04840585 2.25382003 21.671875 2.4765625 C23.19401964 2.61708768 24.71615556 2.75770731 26.23828125 2.8984375 C26.94170654 2.95209473 27.64513184 3.00575195 28.36987305 3.06103516 C31.56492329 3.39285473 33.21311429 3.57038504 35.38671875 6.03125 C35.79148437 6.68867188 36.19625 7.34609375 36.61328125 8.0234375 C37.60328125 8.3534375 38.59328125 8.6834375 39.61328125 9.0234375 C42.30505572 15.86425745 44.47392593 23.63760577 44.61328125 31.0234375 C43.23828125 32.8359375 43.23828125 32.8359375 41.61328125 34.0234375 C41.28328125 35.0134375 40.95328125 36.0034375 40.61328125 37.0234375 C38.18164062 37.8605957 38.18164062 37.8605957 34.95703125 38.51171875 C33.77753906 38.75873535 32.59804688 39.00575195 31.3828125 39.26025391 C30.13886719 39.51210449 28.89492188 39.76395508 27.61328125 40.0234375 C25.20629055 40.55525234 22.80003475 41.09040445 20.39453125 41.62890625 C17.96768343 42.15733279 15.54059866 42.68467222 13.11328125 43.2109375 C11.87835938 43.48357422 10.6434375 43.75621094 9.37109375 44.03710938 C8.18257813 44.29427734 6.9940625 44.55144531 5.76953125 44.81640625 C4.70541016 45.0486792 3.64128906 45.28095215 2.54492188 45.52026367 C-0.23609723 45.99758549 -2.58229275 46.34366299 -5.38671875 46.0234375 C-7.00538635 44.74807739 -7.00538635 44.74807739 -8.38671875 43.0234375 C-8.69736764 40.05791377 -8.83086946 37.30682021 -8.8203125 34.33984375 C-8.82555435 33.48792953 -8.8307962 32.63601532 -8.8361969 31.75828552 C-8.84261879 29.95695078 -8.84127792 28.15557411 -8.83276367 26.35424805 C-8.82426011 23.59933661 -8.85300044 20.84650303 -8.88476562 18.09179688 C-8.88637791 16.34114645 -8.88579958 14.59049236 -8.8828125 12.83984375 C-8.89404648 12.01682266 -8.90528046 11.19380157 -8.91685486 10.34584045 C-8.87126804 6.60001327 -8.79676961 4.6185127 -6.62988281 1.47387695 C-4.03855968 -0.20168364 -3.02458216 -0.37072801 0 0 Z " fill="#FCEEE4" transform="translate(306.38671875,122.9765625)"/>
<path d="M0 0 C73.92 0 147.84 0 224 0 C223.67 2.64 223.34 5.28 223 8 C149.41 8 75.82 8 0 8 C0 5.36 0 2.72 0 0 Z " fill="#DF734A" transform="translate(172,318)"/>
<path d="M0 0 C3.74386772 1.39815982 7.43466135 2.88818962 11.12109375 4.4296875 C13.66476548 5.48598503 16.16156175 6.38598853 18.78515625 7.2578125 C27.43037786 10.14912692 27.43037786 10.14912692 29.25 12.8671875 C29.8125 14.8125 29.8125 14.8125 30 18 C30.66 18 31.32 18 32 18 C29.78823529 28.8 29.78823529 28.8 28 32 C25.4375 33.6875 25.4375 33.6875 23 35 C22.505 35.99 22.505 35.99 22 37 C11.11 37 0.22 37 -11 37 C-11 24.46 -11 11.92 -11 -1 C-7.43864847 -2.78067577 -3.64313843 -1.08750401 0 0 Z " fill="#FDEEE4" transform="translate(309,180)"/>
<path d="M0 0 C1 1 1 1 1.11352539 4.51000977 C1.11336626 6.07048422 1.10767142 7.63096393 1.09765625 9.19140625 C1.0962413 10.01124496 1.09482635 10.83108368 1.09336853 11.67576599 C1.08775289 14.30471382 1.07519779 16.93357773 1.0625 19.5625 C1.05748701 21.34049357 1.05292376 23.11848846 1.04882812 24.89648438 C1.03777839 29.26435545 1.02050331 33.63216348 1 38 C-3.48398784 38.09903473 -7.96739292 38.17154483 -12.45214844 38.21972656 C-13.97700085 38.23981599 -15.50177648 38.26709316 -17.02636719 38.30175781 C-19.22089598 38.35039796 -21.41440469 38.37299396 -23.609375 38.390625 C-25.5888916 38.4220459 -25.5888916 38.4220459 -27.60839844 38.45410156 C-31.54762143 37.92667896 -32.53508909 37.00310892 -35 34 C-35.70511719 33.67773438 -36.41023437 33.35546875 -37.13671875 33.0234375 C-39.66475257 31.63487385 -39.96949575 30.33884255 -40.8125 27.625 C-41.19341797 26.46871094 -41.19341797 26.46871094 -41.58203125 25.2890625 C-42.04959548 22.72838363 -41.84419554 21.44297928 -41 19 C-40.77634766 18.19530273 -40.55269531 17.39060547 -40.32226562 16.56152344 C-38.53013276 13.08976235 -36.7093143 12.50756057 -33.14453125 10.9921875 C-31.96439453 10.48042969 -30.78425781 9.96867188 -29.56835938 9.44140625 C-28.31657633 8.91886322 -27.06462175 8.39673091 -25.8125 7.875 C-24.57939552 7.34664235 -23.3469649 6.81670906 -22.11523438 6.28515625 C-19.76926573 5.27846683 -17.41946832 4.28064003 -15.06542969 3.29296875 C-12.63192653 2.26654053 -10.22317155 1.20370622 -7.81640625 0.1171875 C-4.66649261 -1.1322928 -3.16683188 -1.11770537 0 0 Z " fill="#FBEEE4" transform="translate(292,179)"/>
<path d="M0 0 C5.80190678 5.46061815 7.1752794 12.76076591 7.4375 20.4375 C7.25591059 27.18788881 6.0960643 33.49974976 1.50390625 38.69140625 C-2.93983483 42.5810649 -6.46534916 43.1240285 -12.1875 43.0625 C-13.81751953 43.04896484 -13.81751953 43.04896484 -15.48046875 43.03515625 C-16.31191406 43.02355469 -17.14335937 43.01195312 -18 43 C-18.33 40.36 -18.66 37.72 -19 35 C-19.66 35 -20.32 35 -21 35 C-20.56036145 30.27388561 -19.5178734 25.82559152 -18.25 21.25 C-17.94578125 20.14140625 -17.6415625 19.0328125 -17.328125 17.890625 C-15.74290354 14.44043712 -14.25125543 13.78582689 -11 12 C-9.92232871 8.54024142 -9.92232871 8.54024142 -10 5 C-10.66 4.01 -11.32 3.02 -12 2 C-4.20792648 -1.81964388 -4.20792648 -1.81964388 0 0 Z " fill="#FEE4D2" transform="translate(371,153)"/>
<path d="M0 0 C0.33 0 0.66 0 1 0 C1 6.93 1 13.86 1 21 C2.32 21.66 3.64 22.32 5 23 C4.34 23.66 3.68 24.32 3 25 C2.68462284 29.33643601 2.55102153 31.32653229 5 35 C6.24716797 35.42345703 6.24716797 35.42345703 7.51953125 35.85546875 C10 37 10 37 11.07421875 39.42578125 C11.27660156 40.37839844 11.47898438 41.33101562 11.6875 42.3125 C12.33528576 45.22554884 12.95902953 47.89897895 14.08203125 50.66796875 C15 53 15 53 15 56 C14.34 56 13.68 56 13 56 C12.67 58.64 12.34 61.28 12 64 C0.40169523 64.74295191 0.40169523 64.74295191 -5 60 C-5.721875 59.46375 -6.44375 58.9275 -7.1875 58.375 C-11.44385562 52.79770643 -12.59077891 45.47971938 -12.3515625 38.5859375 C-11.53143144 32.55341795 -9.65909354 26.34111853 -5.4375 21.8125 C-3 20 -3 20 0 20 C0 13.4 0 6.8 0 0 Z " fill="#FBE3D2" transform="translate(226,132)"/>
<path d="M0 0 C7.98160307 0.62160241 15.76389123 1.94944244 23.625 3.4375 C24.800625 3.65470703 25.97625 3.87191406 27.1875 4.09570312 C33.1822714 5.21719688 39.10494526 6.43526325 45 8 C41.1780549 12.58633412 35.03612901 14.19130836 29.65820312 16.40820312 C27.63270026 17.2468119 25.61729723 18.10697176 23.6015625 18.96875 C22.31045389 19.50655004 21.01880378 20.04305231 19.7265625 20.578125 C18.55689941 21.06700195 17.38723633 21.55587891 16.18212891 22.05957031 C12.85271708 23.04352722 11.26416339 23.01651773 8 22 C7.29488281 21.80019531 6.58976563 21.60039062 5.86328125 21.39453125 C2.92211844 19.19328361 2.23420344 16.06593663 1.1875 12.6875 C0.95869141 12.02298828 0.72988281 11.35847656 0.49414062 10.67382812 C-0.77257064 6.75748228 -1.24691143 3.95492766 0 0 Z " fill="#FBEEE4" transform="translate(241,165)"/>
<path d="M0 0 C3 0.25 3 0.25 5 2.25 C5.25396729 4.52709961 5.25396729 4.52709961 5.25878906 7.40234375 C5.26509338 8.47685791 5.27139771 9.55137207 5.27789307 10.65844727 C5.2738446 11.82303467 5.26979614 12.98762207 5.265625 14.1875 C5.26753845 15.37851318 5.2694519 16.56952637 5.27142334 17.79663086 C5.2727863 20.31852428 5.26908216 22.84042469 5.26074219 25.36230469 C5.25004453 29.23388349 5.26063406 33.10499822 5.2734375 36.9765625 C5.27211593 39.42187603 5.26955358 41.86718927 5.265625 44.3125 C5.26967346 45.4770874 5.27372192 46.6416748 5.27789307 47.84155273 C5.27158875 48.91606689 5.26528442 49.99058105 5.25878906 51.09765625 C5.25640228 52.5209021 5.25640228 52.5209021 5.25396729 53.97290039 C5 56.25 5 56.25 3 58.25 C0 58.5 0 58.5 -3 58.25 C-5.57559128 55.67440872 -5.25278679 54.6768332 -5.25878906 51.09765625 C-5.26509338 50.02314209 -5.27139771 48.94862793 -5.27789307 47.84155273 C-5.2738446 46.67696533 -5.26979614 45.51237793 -5.265625 44.3125 C-5.26753845 43.12148682 -5.2694519 41.93047363 -5.27142334 40.70336914 C-5.2727863 38.18147572 -5.26908216 35.65957531 -5.26074219 33.13769531 C-5.25004453 29.26611651 -5.26063406 25.39500178 -5.2734375 21.5234375 C-5.27211593 19.07812397 -5.26955358 16.63281073 -5.265625 14.1875 C-5.26967346 13.0229126 -5.27372192 11.8583252 -5.27789307 10.65844727 C-5.27158875 9.58393311 -5.26528442 8.50941895 -5.25878906 7.40234375 C-5.25719788 6.45351318 -5.25560669 5.50468262 -5.25396729 4.52709961 C-4.84071323 0.82181668 -3.59769849 0.29980821 0 0 Z " fill="#0197A7" transform="translate(448,284.75)"/>
<path d="M0 0 C0.66 0.66 1.32 1.32 2 2 C1.65333974 8.58654495 0.50618825 15.84405924 -3.6875 21.125 C-10.75000701 23.79729995 -17.72805864 19.55416137 -24.1015625 16.69921875 C-28.29602743 14.83537228 -32.57183128 13.21849914 -36.875 11.625 C-37.58333984 11.36243408 -38.29167969 11.09986816 -39.02148438 10.8293457 C-40.67999231 10.21685658 -42.33984314 9.6080055 -44 9 C-40.28351528 6.80151608 -36.31154598 6.09243489 -32.12890625 5.2734375 C-31.36956284 5.12089508 -30.61021942 4.96835266 -29.8278656 4.81118774 C-28.22556428 4.49078715 -26.62268774 4.17325153 -25.01928711 3.85839844 C-22.57305133 3.37707608 -20.12926857 2.88453473 -17.68554688 2.390625 C-16.12513412 2.08005454 -14.56459126 1.77013693 -13.00390625 1.4609375 C-11.9130648 1.24067398 -11.9130648 1.24067398 -10.80018616 1.01596069 C-3.66009641 -0.37261237 -3.66009641 -0.37261237 0 0 Z " fill="#F8EEE4" transform="translate(348,165)"/>
<path d="M0 0 C1.4540625 0.2165625 1.4540625 0.2165625 2.9375 0.4375 C5.44054984 4.19207477 5.22620257 7.15315098 5.203125 11.5 C5.20503845 12.28769775 5.2069519 13.07539551 5.20892334 13.88696289 C5.21028347 15.55127278 5.20659899 17.21559334 5.19824219 18.87988281 C5.18754 21.42797669 5.19814301 23.97536556 5.2109375 26.5234375 C5.20961587 28.14062656 5.20705342 29.75781517 5.203125 31.375 C5.20717346 32.13756104 5.21122192 32.90012207 5.21539307 33.68579102 C5.18180937 37.47248674 5.0898449 39.20898266 2.9375 42.4375 C0 42.875 0 42.875 -3.0625 42.4375 C-5.68595309 40.0023698 -6.05387428 38.51553294 -6.45068359 34.92578125 C-6.47040134 33.53398964 -6.47283375 32.14188044 -6.4609375 30.75 C-6.46380768 30.01048096 -6.46667786 29.27096191 -6.46963501 28.5090332 C-6.47167203 26.94904818 -6.46616745 25.3890374 -6.45361328 23.82910156 C-6.4375531 21.44538092 -6.45347279 19.0633556 -6.47265625 16.6796875 C-6.47067375 15.1614546 -6.46682994 13.64322276 -6.4609375 12.125 C-6.46701019 11.41448486 -6.47308289 10.70396973 -6.4793396 9.97192383 C-6.43559431 6.88413035 -6.21536751 4.71871801 -4.72900391 1.984375 C-3.0625 0.4375 -3.0625 0.4375 0 0 Z " fill="#089BAA" transform="translate(432.0625,300.5625)"/>
<path d="M0 0 C1.83749565 -0.02409439 1.83749565 -0.02409439 3.71211243 -0.04867554 C5.05570787 -0.06016262 6.39931108 -0.07077122 7.74291992 -0.08056641 C8.41886389 -0.08589008 9.09480785 -0.09121376 9.79123497 -0.09669876 C13.36960084 -0.12342336 16.94793192 -0.14279965 20.52636719 -0.15722656 C23.48599166 -0.1705637 26.44492627 -0.19841074 29.40429688 -0.23925781 C32.97932944 -0.28860211 36.55373651 -0.31334946 40.12909508 -0.32045364 C41.48987339 -0.3271621 42.85063798 -0.3423741 44.21122169 -0.36634445 C56.19921302 -0.56548064 56.19921302 -0.56548064 59.51513672 2.51855469 C61.45813813 5.67589595 61.58469305 7.5481534 61.16088867 11.19287109 C60.72776367 10.71849609 60.29463867 10.24412109 59.84838867 9.75537109 C56.6651101 6.80789093 53.39497843 7.06233663 49.26831055 7.04760742 C47.45127625 7.03803764 47.45127625 7.03803764 45.59753418 7.02827454 C44.28812866 7.02716171 42.97872314 7.02604889 41.62963867 7.02490234 C40.27347783 7.02168897 38.91731734 7.01832483 37.56115723 7.01481628 C34.71988114 7.0088306 31.87863546 7.00697587 29.03735352 7.00756836 C25.39551662 7.0076701 21.75387419 6.99400376 18.11208344 6.97679615 C15.31198225 6.96568328 12.51192824 6.96364891 9.71180725 6.96417809 C7.71593789 6.96242327 5.72008325 6.95158046 3.72424316 6.94062805 C2.51288696 6.94370468 1.30153076 6.94678131 0.0534668 6.94995117 C-1.0144812 6.94852615 -2.0824292 6.94710114 -3.18273926 6.94563293 C-6.06748588 7.0019176 -6.06748588 7.0019176 -8.83911133 9.19287109 C-9.49911133 10.18287109 -10.15911133 11.17287109 -10.83911133 12.19287109 C-11.58911133 9.50537109 -11.58911133 9.50537109 -11.83911133 6.19287109 C-8.37894799 0.82365212 -6.1706654 0.07334987 0 0 Z " fill="#A1F1FC" transform="translate(367.839111328125,25.80712890625)"/>
<path d="M0 0 C1.22477051 -0.01260864 2.44954102 -0.02521729 3.71142578 -0.03820801 C5.0261084 -0.03011108 6.34079102 -0.02201416 7.6953125 -0.01367188 C9.06624629 -0.01636879 10.4371782 -0.02025287 11.80810547 -0.02526855 C14.67629269 -0.03115441 17.54398039 -0.02263109 20.41210938 -0.00390625 C24.08092002 0.01888392 27.74856014 0.00575577 31.41732788 -0.01819611 C34.24675245 -0.03267948 37.07590141 -0.02803672 39.90533447 -0.01768494 C41.91329716 -0.01373486 43.92127073 -0.02584149 45.92919922 -0.03820801 C47.76635498 -0.01929504 47.76635498 -0.01929504 49.640625 0 C51.25348389 0.00477356 51.25348389 0.00477356 52.89892578 0.00964355 C56.52281906 0.63972127 58.21713949 1.96642116 60.8203125 4.51757812 C61.46547592 7.34597457 61.06508796 9.58027255 60.8203125 12.51757812 C60.3871875 11.87820312 59.9540625 11.23882812 59.5078125 10.58007812 C57.90792073 8.25011809 57.90792073 8.25011809 54.8203125 7.51757812 C52.86883176 7.40890965 50.91389269 7.35869411 48.95947266 7.34057617 C47.15212143 7.32132332 47.15212143 7.32132332 45.30825806 7.30168152 C44.00512665 7.29429459 42.70199524 7.28690765 41.359375 7.27929688 C40.69538067 7.27522135 40.03138634 7.27114582 39.34727097 7.26694679 C35.83373071 7.24611034 32.32022924 7.23179737 28.80664062 7.22241211 C25.18274036 7.21134351 21.55945342 7.17693265 17.93577003 7.13724041 C15.14416378 7.1110681 12.35270371 7.10271988 9.56098557 7.09913063 C7.57732139 7.09190774 5.5937572 7.06547419 3.61026001 7.03874207 C2.39905487 7.04166763 1.18784973 7.0445932 -0.06005859 7.04760742 C-1.12356537 7.04174118 -2.18707214 7.03587494 -3.2828064 7.02983093 C-6.8612426 7.6323314 -8.55651112 9.07637617 -11.1796875 11.51757812 C-11.4921875 8.26757812 -11.4921875 8.26757812 -11.1796875 4.51757812 C-7.59826936 0.82078242 -5.07479299 0.01501981 0 0 Z " fill="#A1F1FC" transform="translate(176.1796875,25.482421875)"/>
<path d="M0 0 C3 0.25 3 0.25 5 2.25 C5.19990227 5.09540142 5.27976976 7.84137784 5.265625 10.6875 C5.26753845 11.52337646 5.2694519 12.35925293 5.27142334 13.22045898 C5.27278536 14.98909811 5.26908776 16.75774723 5.26074219 18.52636719 C5.25004275 21.23915994 5.26063676 23.95129044 5.2734375 26.6640625 C5.27211591 28.3802098 5.26955352 30.09635669 5.265625 31.8125 C5.26967346 32.62710693 5.27372192 33.44171387 5.27789307 34.28100586 C5.22991928 40.02008072 5.22991928 40.02008072 3 42.25 C-3.57692308 41.67307692 -3.57692308 41.67307692 -5 40.25 C-5.1134515 37.46176262 -5.16418263 34.69922655 -5.16796875 31.91015625 C-5.17129715 31.07286484 -5.17462555 30.23557343 -5.17805481 29.37290955 C-5.18312756 27.59830272 -5.18546303 25.82368633 -5.18530273 24.04907227 C-5.18748797 21.32747744 -5.20563633 18.60628857 -5.22460938 15.88476562 C-5.22754342 14.16406389 -5.22952814 12.44336023 -5.23046875 10.72265625 C-5.23765427 9.90491226 -5.24483978 9.08716827 -5.25224304 8.24464417 C-5.22052012 0.43504334 -5.22052012 0.43504334 0 0 Z " fill="#0097A7" transform="translate(416,284.75)"/>
<path d="M0 0 C2.3125 1.25 2.3125 1.25 3.3125 2.25 C3.56406269 5.88899175 3.49772226 9.54083673 3.5 13.1875 C3.51224609 14.21552734 3.52449219 15.24355469 3.53710938 16.30273438 C3.54000977 17.77516602 3.54000977 17.77516602 3.54296875 19.27734375 C3.54707764 20.18218506 3.55118652 21.08702637 3.55541992 22.01928711 C3.3125 24.25 3.3125 24.25 1.3125 26.25 C-1.6875 26.5 -1.6875 26.5 -4.6875 26.25 C-8.12286178 22.81463822 -7.05660917 17.9692014 -7.0625 13.3125 C-7.08699219 12.29736328 -7.11148437 11.28222656 -7.13671875 10.23632812 C-7.14058594 9.26244141 -7.14445312 8.28855469 -7.1484375 7.28515625 C-7.15665527 6.3919165 -7.16487305 5.49867676 -7.17333984 4.57836914 C-6.6875 2.25 -6.6875 2.25 -4.82666016 0.38842773 C-2.6875 -0.75 -2.6875 -0.75 0 0 Z " fill="#0297A7" transform="translate(401.6875,316.75)"/>
<path d="M0 0 C3 0.25 3 0.25 5 2.25 C5.25878906 4.46484375 5.25878906 4.46484375 5.265625 7.1875 C5.26820313 8.16460937 5.27078125 9.14171875 5.2734375 10.1484375 C5.26570313 11.17195313 5.25796875 12.19546875 5.25 13.25 C5.25773437 14.27351563 5.26546875 15.29703125 5.2734375 16.3515625 C5.27085937 17.32867187 5.26828125 18.30578125 5.265625 19.3125 C5.26336914 20.21097656 5.26111328 21.10945313 5.25878906 22.03515625 C5 24.25 5 24.25 3 26.25 C0 26.5 0 26.5 -3 26.25 C-5.53054337 23.71945663 -5.25683229 22.81451118 -5.265625 19.3125 C-5.26820313 18.33539063 -5.27078125 17.35828125 -5.2734375 16.3515625 C-5.26570313 15.32804687 -5.25796875 14.30453125 -5.25 13.25 C-5.25773437 12.22648437 -5.26546875 11.20296875 -5.2734375 10.1484375 C-5.27085937 9.17132813 -5.26828125 8.19421875 -5.265625 7.1875 C-5.26336914 6.28902344 -5.26111328 5.39054687 -5.25878906 4.46484375 C-4.83027147 0.79737999 -3.55067437 0.29588953 0 0 Z " fill="#0197A7" transform="translate(400,284.75)"/>
<path d="M0 0 C9.24 0 18.48 0 28 0 C28 4.29 28 8.58 28 13 C21.25109084 13 21.25109084 13 17.6171875 10.8828125 C16.84246094 10.44066406 16.06773437 9.99851563 15.26953125 9.54296875 C14.47933594 9.07503906 13.68914062 8.60710937 12.875 8.125 C11.28932462 7.21048286 9.70339583 6.29640494 8.1171875 5.3828125 C7.42222168 4.97434082 6.72725586 4.56586914 6.01123047 4.14501953 C4.0389656 3.02218362 2.03892026 1.99575176 0 1 C0 0.67 0 0.34 0 0 Z " fill="#F8EEE4" transform="translate(265,222)"/>
<path d="M0 0 C8.91 0 17.82 0 27 0 C23.2669441 3.7330559 19.26401016 5.74609901 14.625 8.1875 C13.77421875 8.65091797 12.9234375 9.11433594 12.046875 9.59179688 C11.21929687 10.02943359 10.39171875 10.46707031 9.5390625 10.91796875 C8.78834473 11.31781982 8.03762695 11.7176709 7.26416016 12.12963867 C5 13 5 13 0 13 C0 8.71 0 4.42 0 0 Z " fill="#FBEEE4" transform="translate(298,222)"/>
<path d="M0 0 C3.23718641 1.70432928 6.24333354 3.58713548 9 6 C9 6.66 9 7.32 9 8 C-0.44573505 8.30470113 -9.6421436 7.14169926 -19 6 C-13.22329553 2.14886369 -7.08228275 -1.26469335 0 0 Z " fill="#ECE7E2" transform="translate(331,114)"/>
<path d="M0 0 C0 0.33 0 0.66 0 1 C-8.91 1.66 -17.82 2.32 -27 3 C-18.22596827 -7.52883808 -11.54675935 -5.86892024 0 0 Z " fill="#F1E9E2" transform="translate(279,119)"/>
<path d="M0 0 C1.98 0 3.96 0 6 0 C6.33 11.88 6.66 23.76 7 36 C4.69 36 2.38 36 0 36 C-0.33 33.36 -0.66 30.72 -1 28 C0.98 28 2.96 28 5 28 C5 19.09 5 10.18 5 1 C3.68 1 2.36 1 1 1 C1 6.28 1 11.56 1 17 C0.67 17 0.34 17 0 17 C0 11.39 0 5.78 0 0 Z " fill="#D97F59" transform="translate(405,290)"/>
<path d="M0 0 C8 4 16 8 24 12 C20.99452056 12.93888521 20.23150009 13.0904347 17.16015625 11.890625 C16.13792969 11.34921875 15.11570312 10.8078125 14.0625 10.25 C13.04285156 9.71890625 12.02320313 9.1878125 10.97265625 8.640625 C8.28049256 7.15480536 5.63676012 5.58205607 3 4 C3 11.59 3 19.18 3 27 C2.34 26.67 1.68 26.34 1 26 C0.67 17.42 0.34 8.84 0 0 Z " fill="#FAEEE2" transform="translate(261,226)"/>
<path d="M0 0 C-9.6547813 7.52587401 -18.53831227 13.38713011 -31 14 C-26.21482877 10.23062828 -20.87077752 7.58439307 -15.5 4.75 C-14.45457031 4.1828125 -13.40914063 3.615625 -12.33203125 3.03125 C-11.32527344 2.50015625 -10.31851562 1.9690625 -9.28125 1.421875 C-7.90549805 0.68855957 -7.90549805 0.68855957 -6.50195312 -0.05957031 C-3.7746394 -1.08470814 -2.6706912 -1.04172575 0 0 Z " fill="#F3EEE5" transform="translate(334,226)"/>
<path d="M0 0 C3 0.25 3 0.25 5 2.25 C5.25 5.25 5.25 5.25 5 8.25 C3 10.25 3 10.25 0 10.5 C-3 10.25 -3 10.25 -5 8.25 C-5.25 5.25 -5.25 5.25 -5 2.25 C-3 0.25 -3 0.25 0 0 Z " fill="#049AA9" transform="translate(416,332.75)"/>
<path d="M0 0 C0.99 0.103125 1.98 0.20625 3 0.3125 C5 3.3125 5 3.3125 4.625 6.5 C4.41875 7.428125 4.2125 8.35625 4 9.3125 C0.625 9.9375 0.625 9.9375 -3 10.3125 C-5 8.3125 -5 8.3125 -5.25 5.3125 C-4.90578549 1.18192588 -4.11441953 0.42858537 0 0 Z " fill="#0299A9" transform="translate(432,284.6875)"/>
<path d="M0 0 C0 0.99 0 1.98 0 3 C-0.48608231 3.42867874 -0.97216461 3.85735748 -1.47297668 4.29902649 C-3.74298055 6.82761685 -3.39942828 8.8617991 -3.43237305 12.21557617 C-3.45216721 13.4966777 -3.47196136 14.77777924 -3.49235535 16.09770203 C-3.49912514 17.49612278 -3.50557201 18.89454512 -3.51171875 20.29296875 C-3.52856354 21.72359261 -3.54671351 23.15420164 -3.56611633 24.58479309 C-3.61364482 28.34780242 -3.64343541 32.11075169 -3.66955566 35.8739624 C-3.69934705 39.71492377 -3.74588218 43.55567807 -3.79101562 47.39648438 C-3.877081 54.93088691 -3.94441153 62.46530445 -4 70 C-4.33 70 -4.66 70 -5 70 C-5.11586907 61.46383927 -5.20470158 52.92800724 -5.25906086 44.39125443 C-5.28515132 40.42722033 -5.32053763 36.46372437 -5.37719727 32.5 C-5.43153926 28.6744534 -5.46142469 24.84942421 -5.47438622 21.02352142 C-5.48362241 19.56421512 -5.50165922 18.10493704 -5.52865028 16.64585114 C-5.56497427 14.60084441 -5.56994463 12.55797292 -5.56762695 10.51269531 C-5.57873001 9.34909485 -5.58983307 8.18549438 -5.60127258 6.9866333 C-5 4 -5 4 -2.46452332 1.59295654 C-1.65123062 1.06728088 -0.83793793 0.54160522 0 0 Z " fill="#76EFFC" transform="translate(170,216)"/>
<path d="M0 0 C5.05908096 7.87746171 5.05908096 7.87746171 4.8125 12.5625 C4.544375 13.366875 4.27625 14.17125 4 15 C3.67 15 3.34 15 3 15 C2.7525 13.88625 2.505 12.7725 2.25 11.625 C1.40864933 8.05127578 1.40864933 8.05127578 -0.65625 6.8125 C-3.70631604 5.75514377 -6.53116697 5.56812998 -9.75 5.375 C-10.92046875 5.30023438 -12.0909375 5.22546875 -13.296875 5.1484375 C-14.18890625 5.09945313 -15.0809375 5.05046875 -16 5 C-13.37586486 3.65278776 -10.75134574 2.43899699 -8 1.375 C-7.01 0.98441406 -7.01 0.98441406 -6 0.5859375 C-4 0 -4 0 0 0 Z " fill="#F89169" transform="translate(234,269)"/>
<path d="M0 0 C0.66 0 1.32 0 2 0 C1.51172287 7.47834967 0.66594452 14.68925318 -1 22 C-1.66 22 -2.32 22 -3 22 C-3 21.34 -3 20.68 -3 20 C-3.66 20 -4.32 20 -5 20 C-4.35346673 13.04976736 -2.13972752 6.61822697 0 0 Z " fill="#F4EEE5" transform="translate(355,168)"/>
<path d="M0 0 C0 0.99 0 1.98 0 3 C-0.48608231 3.45139847 -0.97216461 3.90279694 -1.47297668 4.36787415 C-3.57761327 6.61736945 -3.39548129 8.06675435 -3.43237305 11.11401367 C-3.45216721 12.15486618 -3.47196136 13.19571869 -3.49235535 14.26811218 C-3.49874527 15.39006485 -3.50513519 16.51201752 -3.51171875 17.66796875 C-3.52966995 18.81791824 -3.54762115 19.96786774 -3.56611633 21.15266418 C-3.62036261 24.83090532 -3.65416171 28.50901564 -3.6875 32.1875 C-3.72066034 34.67905472 -3.75514878 37.17059215 -3.79101562 39.66210938 C-3.87609735 45.77462228 -3.94438656 51.88715182 -4 58 C-4.33 58 -4.66 58 -5 58 C-5.12667436 50.38299292 -5.21429896 42.76625694 -5.2746582 35.1484375 C-5.29981755 32.55653737 -5.33394851 29.96470828 -5.37719727 27.37304688 C-5.43778231 23.64956139 -5.46619646 19.92701305 -5.48828125 16.203125 C-5.51408768 15.04258606 -5.5398941 13.88204712 -5.56648254 12.68634033 C-5.56930051 4.62153445 -5.56930051 4.62153445 -2.46948242 1.23730469 C-1.65455322 0.82899414 -0.83962402 0.42068359 0 0 Z " fill="#79F0FD" transform="translate(418,216)"/>
<path d="M0 0 C1.32 0.33 2.64 0.66 4 1 C3.35550393 4.01217112 2.34977818 6.51655836 0.9375 9.25 C0.57527344 9.95640625 0.21304687 10.6628125 -0.16015625 11.390625 C-0.43730469 11.92171875 -0.71445312 12.4528125 -1 13 C-1.66 13 -2.32 13 -3 13 C-2.52060632 8.28596212 -2.03165952 4.33420699 0 0 Z " fill="#EEF0E9" transform="translate(345,200)"/>
<path d="M0 0 C1.86610926 2.79916389 2.68785383 4.81938269 3.625 8 C4.01558594 9.299375 4.01558594 9.299375 4.4140625 10.625 C5 13 5 13 5 16 C4.01 15.67 3.02 15.34 2 15 C1.66223316 13.2508503 1.32996329 11.50063855 1 9.75 C0.814375 8.77546875 0.62875 7.8009375 0.4375 6.796875 C0 4 0 4 0 0 Z " fill="#E2EDE7" transform="translate(236,172)"/>
<path d="M0 0 C0.99 0.33 1.98 0.66 3 1 C3.94921875 3.50390625 3.94921875 3.50390625 4.6875 6.5625 C4.93886719 7.57441406 5.19023437 8.58632812 5.44921875 9.62890625 C5.63097656 10.41136719 5.81273437 11.19382813 6 12 C3.32098068 9.68118495 2.33795597 7.68185532 1.3125 4.3125 C1.06113281 3.50425781 0.80976563 2.69601563 0.55078125 1.86328125 C0.36902344 1.24839844 0.18726563 0.63351563 0 0 Z " fill="#E3F3EE" transform="translate(243,200)"/>
<path d="M0 0 C2.00948183 0.01778303 4.01668765 0.16786374 6.01953125 0.33203125 C6.01953125 0.66203125 6.01953125 0.99203125 6.01953125 1.33203125 C4.94703125 1.62078125 3.87453125 1.90953125 2.76953125 2.20703125 C-0.07447239 3.06023234 -2.41555858 3.89568155 -4.98046875 5.33203125 C-3.05235036 0.51173527 -3.05235036 0.51173527 0 0 Z " fill="#CBEDEB" transform="translate(253.98046875,125.66796875)"/>
</svg>
